<?xml version="1.0" encoding="utf-8"?>
<!-- Generator: Adobe Illustrator 23.0.1, SVG Export Plug-In . SVG Version: 6.00 Build 0)  -->
<svg version="1.1" id="Layer_1" xmlns="http://www.w3.org/2000/svg" xmlns:xlink="http://www.w3.org/1999/xlink" x="0px" y="0px"
	 viewBox="0 0 188 50" style="enable-background:new 0 0 188 50;" xml:space="preserve">
<style type="text/css">
	.st0{fill-rule:evenodd;clip-rule:evenodd;fill:#293C92;}
	.st1{filter:url(#Adobe_OpacityMaskFilter);}
	.st2{fill-rule:evenodd;clip-rule:evenodd;fill:#FFFFFF;}
	.st3{mask:url(#bp-btn-pay-b_1_);}
	.st4{fill-rule:evenodd;clip-rule:evenodd;fill:#394457;}
	.st5{fill:#A6B4C8;}
	.st6{fill:#FFFFFF;}
</style>
<g>
	<g>
		<path class="st0" d="M4,0h180c2.2,0,4,1.8,4,4v42c0,2.2-1.8,4-4,4H4c-2.2,0-4-1.8-4-4V4C0,1.8,1.8,0,4,0z"/>
	</g>
	<defs>
		<filter id="Adobe_OpacityMaskFilter" filterUnits="userSpaceOnUse" x="0" y="0" width="188" height="50">
			<feColorMatrix  type="matrix" values="1 0 0 0 0  0 1 0 0 0  0 0 1 0 0  0 0 0 1 0"/>
		</filter>
	</defs>
	<mask maskUnits="userSpaceOnUse" x="0" y="0" width="188" height="50" id="bp-btn-pay-b_1_">
		<g class="st1">
			<path id="bp-btn-pay-a_1_" class="st2" d="M4,0h180c2.2,0,4,1.8,4,4v42c0,2.2-1.8,4-4,4H4c-2.2,0-4-1.8-4-4V4C0,1.8,1.8,0,4,0z"
				/>
		</g>
	</mask>
	<g class="st3">
		<g>
			<rect class="st4" width="188" height="50"/>
		</g>
	</g>
	<g transform="translate(24.231 11.667)">
		<g transform="translate(11.737 3.314)">
			<path class="st5" d="M3.7,5.5c0.7,0,1.3,0.1,1.8,0.4c0.5,0.2,0.9,0.6,1.1,1C6.9,7.2,7,7.7,7,8.3c0,0.6-0.1,1.1-0.4,1.5
				c-0.3,0.4-0.6,0.7-1.1,0.9c-0.5,0.2-1.1,0.3-1.8,0.3H1.5v3.6H0.2V5.5H3.7z M3.7,10.1c0.7,0,1.2-0.2,1.5-0.5
				c0.3-0.3,0.5-0.8,0.5-1.3c0-0.3-0.1-0.6-0.2-0.9S5.2,6.9,4.9,6.7C4.6,6.6,4.2,6.5,3.7,6.5H1.5v3.6H3.7z M13.5,13.2
				c0,0.2,0,0.5,0.1,0.7c0,0.3,0.1,0.5,0.2,0.6v0.1h-1.3c-0.1-0.2-0.1-0.4-0.2-0.7c-0.2,0.3-0.5,0.5-0.9,0.6
				c-0.3,0.2-0.7,0.2-1.1,0.2c-0.5,0-0.9-0.1-1.2-0.3s-0.6-0.4-0.8-0.7c-0.2-0.3-0.3-0.6-0.3-1c0-0.5,0.1-0.9,0.4-1.2
				s0.6-0.6,1.1-0.8c0.5-0.2,1-0.3,1.7-0.3h1.2V10c0-0.4-0.1-0.7-0.4-1c-0.3-0.2-0.6-0.4-1.1-0.4c-0.3,0-0.5,0-0.8,0.1
				S9.6,9,9.5,9.2C9.3,9.4,9.3,9.5,9.3,9.7H8.1c0-0.3,0.1-0.7,0.3-1C8.6,8.5,9,8.2,9.4,8c0.4-0.2,0.9-0.3,1.4-0.3
				c0.5,0,1,0.1,1.4,0.3c0.4,0.2,0.7,0.4,0.9,0.8c0.2,0.3,0.3,0.8,0.3,1.3V13.2z M10.5,13.8c0.3,0,0.5,0,0.8-0.1
				c0.2-0.1,0.4-0.2,0.6-0.4c0.2-0.2,0.3-0.3,0.4-0.5v-1.4h-1c-0.7,0-1.2,0.1-1.6,0.3c-0.4,0.2-0.5,0.5-0.5,0.9
				c0,0.2,0.1,0.4,0.2,0.6c0.1,0.2,0.3,0.3,0.5,0.4S10.2,13.8,10.5,13.8z M20.3,7.8l-2.8,7.9c-0.2,0.5-0.4,0.9-0.7,1.2
				s-0.8,0.5-1.3,0.5c-0.1,0-0.2,0-0.4,0s-0.3,0-0.3-0.1v-0.9c0,0,0.1,0,0.2,0c0.1,0,0.1,0,0.2,0c0.4,0,0.7-0.1,1-0.2
				c0.2-0.2,0.4-0.5,0.6-0.9l0.3-0.7l-2.5-6.7h1.3l1.7,5.1L19,7.8H20.3z M32.9,7.8l-2,6.8h-1l-1.7-5.1l-1.7,5.1h-1l-2-6.8h1.2
				l1.4,5.1l1.6-5.1h1l1.6,5.2l1.3-5.2H32.9z M34.6,5.4c0.2,0,0.4,0.1,0.5,0.2c0.1,0.1,0.2,0.3,0.2,0.5c0,0.2-0.1,0.3-0.2,0.5
				c-0.1,0.1-0.3,0.2-0.5,0.2c-0.2,0-0.4-0.1-0.5-0.2C34,6.4,33.9,6.2,33.9,6c0-0.2,0.1-0.4,0.2-0.5C34.2,5.4,34.4,5.4,34.6,5.4z
				 M34,14.7V7.8h1.2v6.8H34z M39.8,14.7c-0.3,0.1-0.6,0.1-0.9,0.1c-0.5,0-0.9-0.1-1.2-0.4s-0.4-0.7-0.4-1.4V8.7H36V7.8h1.3V6.2h1.2
				v1.7h1.3v0.9h-1.3V13c0,0.3,0.1,0.5,0.2,0.7c0.1,0.1,0.3,0.2,0.6,0.2c0.1,0,0.2,0,0.3,0c0.1,0,0.2,0,0.3,0L39.8,14.7z M44.2,7.7
				c1.5,0,2.2,0.8,2.2,2.5v4.5h-1.2v-4.5c0-0.5-0.1-0.9-0.3-1.1c-0.2-0.2-0.6-0.4-1-0.4c-0.4,0-0.7,0.1-1,0.3
				c-0.3,0.2-0.5,0.5-0.7,0.8v4.9H41V5h1.2v3.7c0.3-0.3,0.6-0.5,0.9-0.7C43.4,7.8,43.8,7.7,44.2,7.7z"/>
		</g>
	</g>
</g>
<g>
	<g id="Layer_1-2">
		<path class="st6" d="M98.3,28.1c0,1.6-0.3,2.8-0.9,3.5c-0.6,0.7-1.6,1-2.8,0.9H91V17.7h3.6c1.3,0,2.2,0.3,2.8,0.9
			c0.6,0.6,0.9,1.6,0.9,3.1c0,1.2-0.2,2-0.7,2.5c-0.2,0.2-0.5,0.4-0.7,0.5c0.3,0.1,0.5,0.3,0.7,0.6C98.1,25.8,98.3,26.7,98.3,28.1z
			 M96.1,21.7c0-0.7-0.1-1.2-0.4-1.5s-0.7-0.4-1.4-0.4h-1.1v3.9h1.1c0.6,0,1.1-0.2,1.3-0.5C95.9,22.9,96.1,22.4,96.1,21.7z M96.1,28
			c0-0.8-0.1-1.4-0.4-1.8c-0.3-0.4-0.7-0.5-1.4-0.5h-1.1v4.6h1.1c0.6,0,1.1-0.2,1.4-0.5S96.1,28.9,96.1,28L96.1,28z"/>
		<path class="st6" d="M105.8,32.4h-6.2V17.7h2.2v12.7h4V32.4z"/>
		<path class="st6" d="M114.4,22.3c0,0.6,0,1.5,0,2.8c0,1.3,0,2.2,0,2.8c0,0.6-0.1,1.3-0.3,1.9c-0.1,0.6-0.4,1.2-0.7,1.6
			c-0.7,0.8-1.7,1.3-2.8,1.2c-1.1,0-2.1-0.4-2.8-1.2c-0.4-0.5-0.6-1-0.7-1.6c-0.1-0.6-0.2-1.3-0.3-1.9c0-0.6,0-1.5,0-2.8
			s0-2.2,0-2.8c0-0.6,0.1-1.3,0.3-1.9c0.1-0.6,0.4-1.2,0.7-1.6c0.7-0.8,1.7-1.3,2.8-1.2c1.1,0,2.1,0.4,2.8,1.2
			c0.4,0.5,0.6,1,0.7,1.6C114.2,21,114.3,21.6,114.4,22.3z M112.1,28.4c0.1-0.7,0.1-1.8,0.1-3.3s0-2.6-0.1-3.3
			c0-0.6-0.2-1.1-0.4-1.6c-0.2-0.4-0.7-0.6-1.1-0.6c-0.4,0-0.9,0.2-1.1,0.6c-0.3,0.6-0.5,2.2-0.5,4.9s0.2,4.3,0.5,4.9
			c0.2,0.4,0.7,0.6,1.1,0.6c0.4,0,0.9-0.2,1.1-0.6C111.9,29.5,112.1,28.9,112.1,28.4z"/>
		<path class="st6" d="M122.8,28.5c0,1.4-0.4,2.5-1.2,3.2c-1.5,1.4-3.9,1.2-5.3-0.3c-0.4-0.5-0.6-1-0.7-1.6
			c-0.1-0.6-0.2-1.3-0.3-1.9c0-0.6,0-1.5,0-2.8s0-2.2,0-2.8c0-0.7,0.1-1.3,0.3-1.9c0.1-0.6,0.4-1.2,0.7-1.6c0.7-0.8,1.7-1.3,2.8-1.2
			c0.9,0,1.8,0.3,2.5,1c0.7,0.7,1.1,1.7,1.2,3.1h-2.2c0-0.5-0.1-1-0.4-1.4c-0.2-0.4-0.7-0.6-1.1-0.5c-0.4,0-0.9,0.2-1.1,0.6
			c-0.3,0.6-0.5,2.2-0.5,4.9s0.2,4.4,0.5,4.9c0.2,0.4,0.7,0.6,1.1,0.6c0.4,0,0.9-0.2,1.1-0.5c0.2-0.4,0.4-0.9,0.4-1.4L122.8,28.5z"
			/>
		<path class="st6" d="M132.2,32.4h-2.5l-2.4-6.1l-1.2,2.3v3.8h-2.2V17.7h2.2v7l3.2-7h2.2l-2.8,6.2L132.2,32.4z"/>
		<path class="st6" d="M142.6,28.2c0,0.7,0,1.5-0.2,2.2c-0.1,0.5-0.4,1-0.8,1.4c-0.6,0.6-1.5,0.9-2.4,0.9c-0.9,0-1.7-0.3-2.4-0.9
			c-0.6-0.6-0.9-1.4-0.9-2.4v-0.9h2.2v0.9c0,0.3,0.1,0.6,0.3,0.9c0.2,0.2,0.5,0.3,0.8,0.3c0.3,0,0.6-0.1,0.8-0.4
			c0.2-0.3,0.4-1,0.4-2.1c0-1.1-0.1-1.8-0.3-2.1c-0.2-0.3-0.5-0.4-0.8-0.4h-0.7v-1.8h0.7c0.3,0,0.5-0.1,0.7-0.3
			c0.2-0.2,0.3-0.8,0.3-1.8c0-0.9-0.1-1.5-0.3-1.7c-0.2-0.2-0.4-0.3-0.7-0.3c-0.3,0-0.5,0.1-0.7,0.3c-0.2,0.2-0.3,0.5-0.3,0.8v1H136
			v-0.9c0-1.1,0.3-1.9,0.9-2.5c0.6-0.6,1.4-0.9,2.3-0.9c0.8,0,1.7,0.3,2.3,0.8c0.6,0.6,1,1.7,1,3.1c0,1.1-0.1,1.8-0.4,2.3
			c-0.2,0.4-0.5,0.7-0.8,0.9c0.3,0.2,0.6,0.5,0.9,0.9C142.4,26,142.6,26.9,142.6,28.2z"/>
		<path class="st6" d="M150.4,29.3c0.1,1.7-1.2,3.2-2.9,3.3c-0.1,0-0.3,0-0.4,0c-0.9,0-1.7-0.3-2.4-0.9c-0.6-0.7-1-1.5-0.9-2.5v-8.5
			c-0.1-0.9,0.3-1.8,0.9-2.5c1.4-1.2,3.4-1.2,4.7,0c0.6,0.6,1,1.5,0.9,2.5V29.3z M148.2,29.3v-8.5c0-0.3-0.1-0.7-0.3-0.9
			c-0.2-0.2-0.5-0.3-0.8-0.3c-0.3,0-0.6,0.1-0.8,0.3c-0.2,0.3-0.3,0.6-0.3,0.9v8.4c0,0.3,0.1,0.7,0.3,0.9c0.2,0.2,0.5,0.3,0.8,0.3
			c0.3,0,0.6-0.1,0.8-0.3C148.1,29.9,148.2,29.6,148.2,29.3L148.2,29.3z"/>
	</g>
</g>
</svg>
