<?xml version="1.0" encoding="utf-8"?>
<!-- Generator: Adobe Illustrator 23.0.1, SVG Export Plug-In . SVG Version: 6.00 Build 0)  -->
<svg version="1.1" id="Layer_1" xmlns="http://www.w3.org/2000/svg" xmlns:xlink="http://www.w3.org/1999/xlink" x="0px" y="0px"
	 viewBox="0 0 188 50" style="enable-background:new 0 0 188 50;" xml:space="preserve">
<style type="text/css">
	.st0{fill-rule:evenodd;clip-rule:evenodd;fill:#293C92;}
	.st1{filter:url(#Adobe_OpacityMaskFilter);}
	.st2{fill-rule:evenodd;clip-rule:evenodd;fill:#FFFFFF;}
	.st3{mask:url(#bp-btn-donate-b_1_);}
	.st4{fill-rule:evenodd;clip-rule:evenodd;fill:#394457;}
	.st5{fill:#A6B4C8;}
	.st6{fill:#FFFFFF;}
</style>
<g>
	<g>
		<path class="st0" d="M4,0h180c2.2,0,4,1.8,4,4v42c0,2.2-1.8,4-4,4H4c-2.2,0-4-1.8-4-4V4C0,1.8,1.8,0,4,0z"/>
	</g>
	<defs>
		<filter id="Adobe_OpacityMaskFilter" filterUnits="userSpaceOnUse" x="0" y="0" width="188" height="50">
			<feColorMatrix  type="matrix" values="1 0 0 0 0  0 1 0 0 0  0 0 1 0 0  0 0 0 1 0"/>
		</filter>
	</defs>
	<mask maskUnits="userSpaceOnUse" x="0" y="0" width="188" height="50" id="bp-btn-donate-b_1_">
		<g class="st1">
			<path id="bp-btn-donate-a_1_" class="st2" d="M4,0h180c2.2,0,4,1.8,4,4v42c0,2.2-1.8,4-4,4H4c-2.2,0-4-1.8-4-4V4C0,1.8,1.8,0,4,0
				z"/>
		</g>
	</mask>
	<g class="st3">
		<rect class="st4" width="188" height="50"/>
	</g>
	<g transform="translate(24.231 11.667)">
		<g transform="translate(8.383 3.314)">
			<path class="st5" d="M2.2,7.1c0.7,0,1.3,0.1,1.8,0.4C4.5,7.8,5,8.2,5.2,8.8c0.3,0.6,0.4,1.2,0.4,1.9v0.5c0,0.7-0.1,1.4-0.4,1.9
				c-0.3,0.5-0.7,1-1.2,1.3c-0.5,0.3-1.2,0.4-1.9,0.4H0V7.1H2.2z M4.6,10.7c0-0.6-0.1-1.1-0.3-1.5c-0.2-0.4-0.5-0.7-0.8-1
				C3.2,8,2.7,7.9,2.2,7.9H1V14h1.1c0.5,0,1-0.1,1.4-0.3s0.7-0.6,0.9-1c0.2-0.4,0.3-0.9,0.3-1.5V10.7z M6.6,11.9
				c0-0.6,0.1-1.1,0.3-1.5c0.2-0.4,0.5-0.8,0.9-1c0.4-0.3,0.9-0.4,1.4-0.4c0.5,0,1,0.1,1.4,0.4c0.4,0.3,0.7,0.6,0.9,1
				c0.2,0.4,0.3,0.9,0.3,1.5V12c0,0.6-0.1,1.1-0.3,1.5c-0.2,0.4-0.5,0.8-0.9,1c-0.4,0.3-0.9,0.4-1.4,0.4c-0.5,0-1-0.1-1.4-0.4
				c-0.4-0.3-0.7-0.6-0.9-1C6.7,13,6.6,12.5,6.6,12V11.9z M7.6,12c0,0.4,0.1,0.7,0.2,1.1s0.3,0.6,0.6,0.8c0.2,0.2,0.5,0.3,0.9,0.3
				c0.4,0,0.7-0.1,0.9-0.3c0.2-0.2,0.4-0.4,0.6-0.8c0.1-0.3,0.2-0.7,0.2-1.1v-0.1c0-0.4-0.1-0.7-0.2-1.1s-0.3-0.6-0.6-0.8
				C9.9,9.8,9.6,9.7,9.3,9.7c-0.4,0-0.7,0.1-0.9,0.3c-0.2,0.2-0.4,0.4-0.6,0.8s-0.2,0.7-0.2,1.1V12z M15.7,8.9
				c1.2,0,1.9,0.7,1.9,2.1v3.8h-1V11c0-0.4-0.1-0.8-0.3-1c-0.2-0.2-0.5-0.3-0.9-0.3c-0.3,0-0.6,0.1-0.8,0.3
				c-0.2,0.2-0.4,0.4-0.6,0.7v4.1h-1V9h1l0,0.7c0.2-0.3,0.5-0.5,0.8-0.6C15,9,15.4,8.9,15.7,8.9z M23.3,13.6c0,0.2,0,0.4,0.1,0.6
				c0,0.2,0.1,0.4,0.2,0.5v0.1h-1.1c-0.1-0.1-0.1-0.3-0.1-0.6c-0.2,0.2-0.4,0.4-0.7,0.5c-0.3,0.1-0.6,0.2-0.9,0.2
				c-0.4,0-0.7-0.1-1-0.2s-0.5-0.4-0.7-0.6c-0.2-0.3-0.2-0.5-0.2-0.9c0-0.4,0.1-0.8,0.3-1c0.2-0.3,0.5-0.5,0.9-0.6s0.9-0.2,1.4-0.2
				h1v-0.5c0-0.4-0.1-0.6-0.3-0.8c-0.2-0.2-0.5-0.3-0.9-0.3c-0.2,0-0.5,0-0.6,0.1S20.1,10,20,10.2c-0.1,0.1-0.2,0.3-0.2,0.5h-1
				c0-0.3,0.1-0.6,0.3-0.8s0.5-0.5,0.8-0.6c0.4-0.2,0.8-0.2,1.2-0.2c0.4,0,0.8,0.1,1.1,0.2c0.3,0.1,0.6,0.4,0.8,0.6
				c0.2,0.3,0.3,0.6,0.3,1.1V13.6z M20.8,14.1c0.2,0,0.4,0,0.6-0.1c0.2-0.1,0.4-0.2,0.5-0.3c0.1-0.1,0.3-0.3,0.3-0.4V12h-0.8
				c-0.6,0-1,0.1-1.3,0.3c-0.3,0.2-0.5,0.4-0.5,0.8c0,0.2,0,0.4,0.1,0.5c0.1,0.1,0.2,0.3,0.4,0.4C20.4,14,20.6,14.1,20.8,14.1z
				 M27.2,14.8c-0.2,0.1-0.5,0.1-0.8,0.1c-0.4,0-0.7-0.1-1-0.4c-0.2-0.2-0.4-0.6-0.4-1.2V9.8H24V9H25V7.6h1V9h1.1v0.8h-1.1v3.6
				c0,0.3,0.1,0.5,0.2,0.6c0.1,0.1,0.3,0.1,0.5,0.1c0.1,0,0.2,0,0.2,0c0.1,0,0.2,0,0.2,0L27.2,14.8z M32.8,12.2h-3.9
				c0,0.4,0.1,0.7,0.2,1c0.1,0.3,0.3,0.5,0.6,0.7c0.3,0.2,0.6,0.3,0.9,0.3c0.3,0,0.6-0.1,0.9-0.2s0.5-0.3,0.7-0.6l0.6,0.5
				c-0.2,0.3-0.5,0.6-0.9,0.8c-0.4,0.2-0.8,0.3-1.3,0.3c-0.5,0-1-0.1-1.4-0.4c-0.4-0.2-0.7-0.6-0.9-1c-0.2-0.4-0.3-0.9-0.3-1.4v-0.2
				c0-0.6,0.1-1.1,0.4-1.6c0.2-0.4,0.6-0.8,0.9-1c0.4-0.2,0.8-0.4,1.3-0.4c0.5,0,1,0.1,1.3,0.4s0.6,0.6,0.8,1s0.3,0.9,0.3,1.5V12.2z
				 M31.8,11.3c0-0.5-0.2-0.8-0.4-1.1c-0.2-0.3-0.6-0.5-1-0.5c-0.4,0-0.7,0.1-1,0.4s-0.4,0.7-0.5,1.2L31.8,11.3L31.8,11.3z M43.6,9
				l-1.7,5.8h-0.8l-1.4-4.4l-1.4,4.4h-0.8L35.8,9h1l1.1,4.3L39.3,9h0.8l1.4,4.4L42.6,9H43.6z M45,6.9c0.2,0,0.3,0.1,0.4,0.2
				s0.2,0.2,0.2,0.4c0,0.2-0.1,0.3-0.2,0.4C45.3,8,45.2,8.1,45,8.1S44.7,8,44.6,7.9c-0.1-0.1-0.2-0.2-0.2-0.4c0-0.2,0.1-0.3,0.2-0.4
				C44.7,7,44.8,6.9,45,6.9z M44.5,14.8V9h1v5.8H44.5z M49.4,14.8c-0.2,0.1-0.5,0.1-0.8,0.1c-0.4,0-0.7-0.1-1-0.4
				c-0.2-0.2-0.4-0.6-0.4-1.2V9.8h-1.1V9h1.1V7.6h1V9h1.1v0.8h-1.1v3.6c0,0.3,0.1,0.5,0.2,0.6s0.3,0.1,0.5,0.1c0.1,0,0.2,0,0.2,0
				c0.1,0,0.2,0,0.2,0L49.4,14.8z M53,8.9c1.2,0,1.9,0.7,1.9,2.1v3.8h-1V11c0-0.4-0.1-0.8-0.3-1c-0.2-0.2-0.5-0.3-0.9-0.3
				c-0.3,0-0.6,0.1-0.8,0.3c-0.2,0.2-0.4,0.4-0.6,0.7v4.1h-1V6.6h1v3.1c0.2-0.3,0.5-0.4,0.8-0.6S52.7,8.9,53,8.9z"/>
		</g>
	</g>
</g>
<g>
	<g id="Layer_1-2_1_">
		<path class="st6" d="M104.7,29.4c0,1.6-0.3,2.8-0.9,3.5c-0.6,0.7-1.6,1-2.8,0.9h-3.6V19h3.6c1.3,0,2.2,0.3,2.8,0.9
			c0.6,0.6,0.9,1.6,0.9,3.1c0,1.2-0.2,2-0.7,2.5c-0.2,0.2-0.5,0.4-0.7,0.5c0.3,0.1,0.5,0.3,0.7,0.6
			C104.4,27.1,104.7,28.1,104.7,29.4z M102.4,23c0-0.7-0.1-1.2-0.4-1.5s-0.7-0.4-1.4-0.4h-1.1V25h1.1c0.6,0,1.1-0.2,1.3-0.5
			C102.3,24.2,102.4,23.7,102.4,23z M102.5,29.4c0-0.8-0.1-1.4-0.4-1.8c-0.3-0.4-0.7-0.5-1.4-0.5h-1.1v4.6h1.1
			c0.6,0,1.1-0.2,1.4-0.5S102.5,30.2,102.5,29.4L102.5,29.4z"/>
		<path class="st6" d="M112.1,33.8h-6.2V19h2.2v12.7h4V33.8z"/>
		<path class="st6" d="M120.7,23.6c0,0.6,0,1.5,0,2.8c0,1.3,0,2.2,0,2.8c0,0.6-0.1,1.3-0.3,1.9c-0.1,0.6-0.4,1.2-0.7,1.6
			c-0.7,0.8-1.7,1.3-2.8,1.2c-1.1,0-2.1-0.4-2.8-1.2c-0.4-0.5-0.6-1-0.7-1.6c-0.1-0.6-0.2-1.3-0.3-1.9c0-0.6,0-1.5,0-2.8
			c0-1.3,0-2.2,0-2.8c0-0.6,0.1-1.3,0.3-1.9c0.1-0.6,0.4-1.2,0.7-1.6c0.7-0.8,1.7-1.3,2.8-1.2c1.1,0,2.1,0.4,2.8,1.2
			c0.4,0.5,0.6,1,0.7,1.6C120.6,22.3,120.7,23,120.7,23.6z M118.4,29.7c0.1-0.7,0.1-1.8,0.1-3.3c0-1.5,0-2.6-0.1-3.3
			c0-0.6-0.2-1.1-0.4-1.6c-0.2-0.4-0.7-0.6-1.1-0.6c-0.4,0-0.9,0.2-1.1,0.6c-0.3,0.6-0.5,2.2-0.5,4.9s0.2,4.3,0.5,4.9
			c0.2,0.4,0.7,0.6,1.1,0.6c0.4,0,0.9-0.2,1.1-0.6C118.3,30.8,118.4,30.2,118.4,29.7z"/>
		<path class="st6" d="M129.1,29.8c0,1.4-0.4,2.5-1.2,3.2c-1.5,1.4-3.9,1.2-5.3-0.3c-0.4-0.5-0.6-1-0.7-1.6
			c-0.1-0.6-0.2-1.3-0.3-1.9c0-0.6,0-1.5,0-2.8s0-2.2,0-2.8c0-0.7,0.1-1.3,0.3-1.9c0.1-0.6,0.4-1.2,0.7-1.6c0.7-0.8,1.7-1.3,2.8-1.2
			c0.9,0,1.8,0.3,2.5,1c0.7,0.7,1.1,1.7,1.2,3.1h-2.2c0-0.5-0.1-1-0.4-1.4c-0.2-0.4-0.7-0.6-1.1-0.5c-0.4,0-0.9,0.2-1.1,0.6
			c-0.3,0.6-0.5,2.2-0.5,4.9s0.2,4.4,0.5,4.9c0.2,0.4,0.7,0.6,1.1,0.6c0.4,0,0.9-0.2,1.1-0.5c0.2-0.4,0.4-0.9,0.4-1.4L129.1,29.8z"
			/>
		<path class="st6" d="M138.5,33.8H136l-2.4-6.1l-1.2,2.3v3.8h-2.2V19h2.2v7l3.2-7h2.2l-2.8,6.2L138.5,33.8z"/>
		<path class="st6" d="M148.9,29.5c0,0.7,0,1.5-0.2,2.2c-0.1,0.5-0.4,1-0.8,1.4c-0.6,0.6-1.5,0.9-2.4,0.9c-0.9,0-1.7-0.3-2.4-0.9
			c-0.6-0.6-0.9-1.4-0.9-2.4v-0.9h2.2v0.9c0,0.3,0.1,0.6,0.3,0.9c0.2,0.2,0.5,0.3,0.8,0.3c0.3,0,0.6-0.1,0.8-0.4
			c0.2-0.3,0.4-1,0.4-2.1c0-1.1-0.1-1.8-0.3-2.1c-0.2-0.3-0.5-0.4-0.8-0.4h-0.7V25h0.7c0.3,0,0.5-0.1,0.7-0.3
			c0.2-0.2,0.3-0.8,0.3-1.8c0-0.9-0.1-1.5-0.3-1.7c-0.2-0.2-0.4-0.3-0.7-0.3c-0.3,0-0.5,0.1-0.7,0.3c-0.2,0.2-0.3,0.5-0.3,0.8v1
			h-2.2v-0.9c0-1.1,0.3-1.9,0.9-2.5c0.6-0.6,1.4-0.9,2.3-0.9c0.8,0,1.7,0.3,2.3,0.8c0.6,0.6,1,1.7,1,3.1c0,1.1-0.1,1.8-0.4,2.3
			c-0.2,0.4-0.5,0.7-0.8,0.9c0.3,0.2,0.6,0.5,0.9,0.9C148.8,27.4,148.9,28.2,148.9,29.5z"/>
		<path class="st6" d="M156.7,30.6c0.1,1.7-1.2,3.2-2.9,3.3c-0.1,0-0.3,0-0.4,0c-0.9,0-1.7-0.3-2.4-0.9c-0.6-0.7-1-1.5-0.9-2.5v-8.5
			c-0.1-0.9,0.3-1.8,0.9-2.5c1.4-1.2,3.4-1.2,4.7,0c0.6,0.6,1,1.5,0.9,2.5V30.6z M154.5,30.6v-8.5c0-0.3-0.1-0.7-0.3-0.9
			c-0.2-0.2-0.5-0.3-0.8-0.3c-0.3,0-0.6,0.1-0.8,0.3c-0.2,0.3-0.3,0.6-0.3,0.9v8.4c0,0.3,0.1,0.7,0.3,0.9c0.2,0.2,0.5,0.3,0.8,0.3
			c0.3,0,0.6-0.1,0.8-0.3C154.4,31.3,154.5,30.9,154.5,30.6L154.5,30.6z"/>
	</g>
</g>
</svg>
