<svg xmlns="http://www.w3.org/2000/svg" width="96" height="57.775" viewBox="0 0 96 57.775">
  <g id="XMLID_2_" transform="translate(-20.5 -31.5)">
    <path id="XMLID_19_" d="M39.7,70.773V75.66a.825.825,0,0,1-.873.873H33.94a.825.825,0,0,1-.873-.873V70.773a.825.825,0,0,1,.873-.873h4.887A.825.825,0,0,1,39.7,70.773Zm6.458-12.916v4.887a.825.825,0,0,1-.873.873H34.115a.825.825,0,0,1-.873-.873V57.856a.825.825,0,0,1,.873-.873H45.285C45.809,57.158,46.158,57.333,46.158,57.856ZM39.7,45.115v4.713a.825.825,0,0,1-.873.873H33.94a.825.825,0,0,1-.873-.873V44.94a.825.825,0,0,1,.873-.873h4.887A1.106,1.106,0,0,1,39.7,45.115ZM90.842,70.773V75.66a.825.825,0,0,1-.873.873H46.856a.825.825,0,0,1-.873-.873V70.773a.825.825,0,0,1,.873-.873H90.144C90.667,69.9,90.842,70.249,90.842,70.773ZM58.9,57.856v4.887a.825.825,0,0,1-.873.873H53.14a.825.825,0,0,1-.873-.873V57.856a.825.825,0,0,1,.873-.873h4.887C58.551,57.158,58.9,57.333,58.9,57.856ZM52.442,45.115v4.713a.825.825,0,0,1-.873.873H46.682a.825.825,0,0,1-.873-.873V44.94a.825.825,0,0,1,.873-.873h4.887C52.267,44.242,52.442,44.591,52.442,45.115Zm19.2,12.742v4.887a.825.825,0,0,1-.873.873H65.882a.825.825,0,0,1-.873-.873V57.856a.825.825,0,0,1,.873-.873h4.887C71.467,57.158,71.642,57.333,71.642,57.856ZM65.358,45.115v4.713a.825.825,0,0,1-.873.873H59.773a.825.825,0,0,1-.873-.873V44.94a.825.825,0,0,1,.873-.873H64.66A1.179,1.179,0,0,1,65.358,45.115Zm19.2,12.742v4.887a.825.825,0,0,1-.873.873H78.973a.825.825,0,0,1-.873-.873V57.856a.825.825,0,0,1,.873-.873H83.86C84.209,57.158,84.558,57.333,84.558,57.856Zm19.2,12.916V75.66a.825.825,0,0,1-.873.873H98.173a.825.825,0,0,1-.873-.873V70.773a.825.825,0,0,1,.873-.873h4.887A.8.8,0,0,1,103.758,70.773ZM78.1,45.115v4.713a.825.825,0,0,1-.873.873H72.34a.825.825,0,0,1-.873-.873V44.94a.825.825,0,0,1,.873-.873h4.887A1.106,1.106,0,0,1,78.1,45.115Zm12.742,0v4.713a.825.825,0,0,1-.873.873H85.082a.825.825,0,0,1-.873-.873V44.94a.825.825,0,0,1,.873-.873h4.887C90.667,44.242,90.842,44.591,90.842,45.115Zm12.916,0V62.744a.825.825,0,0,1-.873.873H91.715a.825.825,0,0,1-.873-.873V57.856a.825.825,0,0,1,.873-.873H97.3V44.94a.825.825,0,0,1,.873-.873h4.887A1.179,1.179,0,0,1,103.758,45.115Zm6.284,37.527V37.958H26.958V82.816h83.084ZM116.5,37.958V82.816a6.558,6.558,0,0,1-6.458,6.458H26.958A6.558,6.558,0,0,1,20.5,82.816V37.958A6.558,6.558,0,0,1,26.958,31.5h83.258a6.338,6.338,0,0,1,4.538,1.92A6.978,6.978,0,0,1,116.5,37.958Z" transform="translate(0 0)"/>
  </g>
</svg>
